<svg width="500" height="500" viewBox="0 0 500 500" fill="none" xmlns="http://www.w3.org/2000/svg">
<circle cx="246.603" cy="249.603" r="240" transform="rotate(9.00402 246.603 249.603)" fill="#151922"/>
<circle cx="249.836" cy="249.836" r="200" transform="rotate(9.00402 249.836 249.836)" fill="#CA9F87"/>
<path fill-rule="evenodd" clip-rule="evenodd" d="M373.11 92.2984L50.6028 232.25C51.0096 227.694 51.5741 223.121 52.3007 218.535C55.0548 201.155 59.9706 184.654 66.7305 169.264L316.042 61.0754C337.013 68.4038 356.208 79.0478 373.11 92.2984Z" fill="#EBEBEB"/>
<path fill-rule="evenodd" clip-rule="evenodd" d="M441.369 192.1L76.8757 350.271C65.1439 330.095 56.8872 307.809 52.7796 284.34L409.586 129.504C423.689 148.23 434.511 169.409 441.369 192.1Z" fill="#F5F5F5"/>
<path fill-rule="evenodd" clip-rule="evenodd" d="M50.7803 230.363L371.614 91.1372C386.423 102.521 399.511 115.891 410.54 130.78L53.0605 285.908C49.7707 267.96 48.9094 249.306 50.7803 230.363Z" fill="#E28A64"/>
<path fill-rule="evenodd" clip-rule="evenodd" d="M449.472 237.074L104.185 386.911C91.8235 373.758 81.2749 358.98 72.8505 343.007L438.802 184.203C444.666 201.04 448.321 218.798 449.472 237.074Z" fill="#E28A64"/>
<path fill-rule="evenodd" clip-rule="evenodd" d="M440.781 309.422C443.617 300.295 445.832 290.854 447.372 281.137C449.777 265.955 450.407 250.901 449.414 236.188L103.579 386.263C120.265 404.177 140.297 419.115 162.896 430.01L440.781 309.422Z" fill="#EBEBEB"/>
<path d="M328.969 288.667L333.012 253.398L365.578 239.266L394.1 260.402L390.056 295.671L357.491 309.804L328.969 288.667Z" fill="#EBEBEB"/>
<path d="M336.784 285.959L339.916 258.638L365.143 247.69L387.237 264.063L384.105 291.384L358.879 302.332L336.784 285.959Z" fill="#F6743C"/>
</svg>
