<svg width="263" height="73" viewBox="0 0 263 73" fill="none" xmlns="http://www.w3.org/2000/svg">
<g clip-path="url(#clip0_4_2)">
<path d="M27.7223 67.9407C42.8348 70.447 57.0272 59.6566 59.4219 43.8398C61.8166 28.023 51.5067 13.1692 36.3942 10.6629C21.2817 8.15667 7.08931 18.947 4.69463 34.7638C2.29995 50.5806 12.6098 65.4344 27.7223 67.9407Z" fill="#CA9F87"/>
<path fill-rule="evenodd" clip-rule="evenodd" d="M49.1347 16.4618L4.45947 36.7522C4.51581 36.0915 4.59402 35.4286 4.69465 34.7638C5.07618 32.2438 5.75713 29.8516 6.69356 27.6203L41.2295 11.9351C44.1345 12.9976 46.7934 14.5408 49.1347 16.4618Z" fill="#EBEBEB"/>
<path fill-rule="evenodd" clip-rule="evenodd" d="M58.5904 30.9313L8.09891 53.8629C6.47376 50.9378 5.33 47.7067 4.76099 44.3041L54.1878 21.8559C56.1412 24.5709 57.6406 27.6415 58.5904 30.9313Z" fill="#F5F5F5"/>
<path fill-rule="evenodd" clip-rule="evenodd" d="M4.48403 36.4786L48.9275 16.2935C50.9789 17.944 52.7919 19.8823 54.3197 22.0409L4.79989 44.5315C4.34416 41.9294 4.22485 39.2249 4.48403 36.4786Z" fill="#E28A64"/>
<path fill-rule="evenodd" clip-rule="evenodd" d="M59.7129 37.4517L11.882 59.175C10.1696 57.2679 8.70832 55.1256 7.54132 52.8098L58.2348 29.7863C59.0473 32.2273 59.5535 34.802 59.7129 37.4517Z" fill="#E28A64"/>
<path fill-rule="evenodd" clip-rule="evenodd" d="M58.5091 47.9406C58.9018 46.6174 59.2089 45.2484 59.4221 43.8397C59.7553 41.6386 59.8425 39.4561 59.7049 37.323L11.7979 59.081C14.1094 61.678 16.8843 63.844 20.0148 65.4234L58.5091 47.9406Z" fill="#EBEBEB"/>
<path d="M43.0201 44.9317L43.5803 39.8184L48.0914 37.7694L52.0425 40.8337L51.4824 45.947L46.9711 47.996L43.0201 44.9317Z" fill="#EBEBEB"/>
<path d="M44.1027 44.5388L44.5366 40.5778L48.0311 38.9906L51.0919 41.3645L50.658 45.3255L47.1634 46.9127L44.1027 44.5388Z" fill="#F6743C"/>
<path d="M84.4847 53.9507C81.9813 53.9507 79.7054 53.4572 77.6571 52.4705C75.6414 51.4838 74.0644 50.1226 72.9265 48.3872C71.7886 46.6518 71.2196 44.6953 71.2196 42.5174C71.2196 40.9862 71.8374 39.9313 73.0728 39.3529C74.3408 38.7404 76.1291 38.4341 78.4374 38.4341C78.3398 38.9786 78.2911 39.7953 78.2911 40.8841C78.2911 43.0279 78.8113 44.6612 79.8517 45.7841C80.892 46.8729 82.4364 47.4174 84.4847 47.4174C86.5004 47.4174 88.0286 46.8049 89.0689 45.5799C90.1419 44.3549 90.6783 42.5854 90.6783 40.2716V24.2447H86.0453C84.4197 24.2447 83.2005 23.7173 82.3876 22.6624C81.6073 21.5736 81.2172 19.9402 81.2172 17.7624H94.336C95.3113 17.7624 96.1404 18.1027 96.8232 18.7832C97.5059 19.4298 97.8473 20.2294 97.8473 21.1822V40.2716C97.8473 42.8917 97.2621 45.2396 96.0916 47.3153C94.9538 49.3911 93.3606 51.0244 91.3123 52.2153C89.2966 53.3723 87.0207 53.9507 84.4847 53.9507ZM125.065 48.6424C125.065 50.3437 124.528 51.6538 123.455 52.5726C122.382 53.4913 120.789 53.9507 118.676 53.9507V50.9393C119.164 50.3948 119.57 49.8164 119.895 49.2039L119.554 48.9997C117.506 52.3004 114.742 53.9507 111.263 53.9507C109.638 53.9507 108.158 53.5593 106.825 52.7767C105.492 51.9601 104.436 50.8372 103.655 49.408C102.908 47.9448 102.534 46.2945 102.534 44.457V31.5946C102.534 30.1314 103.07 29.0936 104.143 28.4811C105.248 27.8345 106.939 27.5113 109.215 27.5113V43.9466C109.215 45.1716 109.573 46.1414 110.288 46.856C111.003 47.5705 112.043 47.9278 113.409 47.9278C114.97 47.9278 116.189 47.4174 117.067 46.3966C117.944 45.3417 118.383 43.9976 118.383 42.3643V31.5946C118.383 30.1314 118.92 29.0936 119.993 28.4811C121.098 27.8345 122.789 27.5113 125.065 27.5113V48.6424ZM130.453 32.1561C130.453 30.8631 130.973 29.7741 132.013 28.8894C133.054 27.9707 134.582 27.5113 136.598 27.5113V30.2675C136.207 30.7779 135.898 31.2373 135.671 31.6456L135.915 31.8498C136.923 30.3866 138.044 29.2977 139.28 28.5832C140.548 27.8686 142.125 27.5113 144.01 27.5113C145.766 27.5113 147.327 27.9027 148.692 28.6853C150.09 29.4678 151.163 30.5738 151.911 32.0029C152.691 33.398 153.081 34.9974 153.081 36.8008V44.6612C153.081 46.4987 152.642 48.132 151.765 49.5611C150.919 50.9562 149.733 52.0452 148.204 52.8278C146.709 53.5765 145.018 53.9507 143.133 53.9507C142.027 53.9507 140.824 53.7124 139.524 53.2361C138.256 52.7598 137.199 52.0963 136.354 51.2455L136.159 51.5007C136.321 51.7729 136.679 52.1132 137.232 52.5215V59.5652C137.232 62.6277 134.972 64.159 130.453 64.159V32.1561ZM141.767 47.9278C143.262 47.9278 144.401 47.6046 145.181 46.958C145.994 46.3114 146.4 45.3927 146.4 44.2018V37.3112C146.4 36.0862 145.994 35.1506 145.181 34.504C144.401 33.8574 143.262 33.5342 141.767 33.5342C140.401 33.5342 139.28 33.8745 138.402 34.555C137.557 35.2016 137.134 36.0352 137.134 37.056V44.406C137.134 45.3927 137.557 46.2265 138.402 46.907C139.28 47.5875 140.401 47.9278 141.767 47.9278ZM161.797 25.5717C160.561 25.5717 159.521 25.1975 158.676 24.4488C157.863 23.6663 157.456 22.6624 157.456 21.4374C157.456 20.2124 157.863 19.2256 158.676 18.477C159.521 17.6944 160.561 17.303 161.797 17.303C163.032 17.303 164.056 17.6944 164.869 18.477C165.715 19.2256 166.137 20.2124 166.137 21.4374C166.137 22.6624 165.715 23.6663 164.869 24.4488C164.056 25.1975 163.032 25.5717 161.797 25.5717ZM158.432 31.5946C158.432 30.1314 158.985 29.0936 160.09 28.4811C161.195 27.8345 162.87 27.5113 165.113 27.5113V49.8674C165.113 51.3306 164.56 52.3854 163.455 53.032C162.35 53.6445 160.675 53.9507 158.432 53.9507V31.5946ZM181.556 53.9507C178.793 53.9507 176.761 53.1171 175.46 51.4497C174.16 49.7823 173.509 47.6385 173.509 45.0185V33.1258H168.34C168.34 31.3904 168.649 30.0975 169.266 29.2467C169.884 28.3959 170.697 27.9707 171.705 27.9707H173.607V23.9384C173.607 22.4752 174.143 21.4374 175.216 20.8249C176.289 20.1784 177.915 19.8551 180.093 19.8551V27.9707H186.579C186.579 29.8082 186.254 31.1352 185.604 31.9519C184.954 32.7345 183.881 33.1258 182.385 33.1258H180.191V44.7633C180.191 45.8862 180.402 46.7028 180.824 47.2132C181.247 47.6896 181.979 47.9278 183.019 47.9278C184.157 47.9278 185.328 47.5875 186.53 46.907C186.888 47.2473 187.164 47.6726 187.359 48.183C187.587 48.6934 187.701 49.2039 187.701 49.7143C187.701 50.3948 187.473 51.0583 187.018 51.7049C186.563 52.3515 185.864 52.8958 184.921 53.3382C184.011 53.7465 182.889 53.9507 181.556 53.9507ZM201.29 53.9507C199.274 53.9507 197.404 53.5254 195.681 52.6747C193.991 51.8239 192.642 50.6671 191.634 49.2039C190.626 47.7406 190.122 46.1073 190.122 44.3039V37.7706C190.122 35.8651 190.626 34.1297 191.634 32.5644C192.674 30.9652 194.056 29.723 195.779 28.8384C197.501 27.9537 199.354 27.5113 201.338 27.5113C203.289 27.5113 205.078 27.9366 206.703 28.7873C208.361 29.604 209.662 30.7779 210.604 32.3092C211.547 33.8063 212.019 35.5078 212.019 37.4133V40.1695C212.019 40.9862 211.726 41.6838 211.141 42.2622C210.556 42.8067 209.809 43.0789 208.898 43.0789H196.608V43.7935C196.608 45.1546 196.998 46.2776 197.778 47.1622C198.592 48.013 199.778 48.4382 201.338 48.4382C202.866 48.4382 203.987 48.0979 204.703 47.4174C205.419 46.7028 205.776 45.8182 205.776 44.7633C206.426 44.6953 206.914 44.6612 207.239 44.6612C208.572 44.6612 209.596 44.9505 210.312 45.5289C211.028 46.1073 211.385 46.958 211.385 48.0809C211.385 48.9997 210.946 49.9184 210.068 50.8372C209.19 51.7559 207.971 52.5046 206.41 53.083C204.883 53.6614 203.176 53.9507 201.29 53.9507ZM205.971 38.1279V37.4133C205.971 36.0521 205.532 34.9803 204.655 34.1977C203.81 33.3811 202.688 32.9727 201.29 32.9727C199.891 32.9727 198.754 33.3811 197.876 34.1977C197.031 34.9803 196.608 36.0521 196.608 37.4133V38.1279H205.971ZM229.634 33.5342C227.683 33.5342 226.105 34.0615 224.903 35.1165C223.7 36.1714 223.099 37.4985 223.099 39.0977V49.8674C223.099 51.3306 222.545 52.3854 221.441 53.032C220.368 53.6445 218.692 53.9507 216.418 53.9507V32.8196C216.418 31.1183 216.954 29.8082 218.027 28.8894C219.1 27.9707 220.692 27.5113 222.806 27.5113V30.5227C222.319 31.0672 221.911 31.6456 221.587 32.2581L221.928 32.4623C223.977 29.1616 226.528 27.5113 229.585 27.5113C231.048 27.5113 232.152 27.9196 232.901 28.7363C233.649 29.553 234.023 30.5907 234.023 31.8498C234.023 32.8027 233.779 33.6363 233.292 34.3508C232.381 33.8063 231.161 33.5342 229.634 33.5342ZM237.944 32.1561C237.944 30.8631 238.463 29.7741 239.505 28.8894C240.544 27.9707 242.072 27.5113 244.089 27.5113V30.2675C243.699 30.7779 243.389 31.2373 243.162 31.6456L243.406 31.8498C244.413 30.3866 245.535 29.2977 246.771 28.5832C248.039 27.8686 249.615 27.5113 251.502 27.5113C253.258 27.5113 254.818 27.9027 256.184 28.6853C257.58 29.4678 258.653 30.5738 259.402 32.0029C260.183 33.398 260.573 34.9974 260.573 36.8008V44.6612C260.573 46.4987 260.134 48.132 259.256 49.5611C258.409 50.9562 257.223 52.0452 255.696 52.8278C254.2 53.5765 252.508 53.9507 250.624 53.9507C249.518 53.9507 248.314 53.7124 247.015 53.2361C245.747 52.7598 244.69 52.0963 243.845 51.2455L243.65 51.5007C243.812 51.7729 244.169 52.1132 244.723 52.5215V59.5652C244.723 62.6277 242.462 64.159 237.944 64.159V32.1561ZM249.258 47.9278C250.753 47.9278 251.892 47.6046 252.672 46.958C253.484 46.3114 253.891 45.3927 253.891 44.2018V37.3112C253.891 36.0862 253.484 35.1506 252.672 34.504C251.892 33.8574 250.753 33.5342 249.258 33.5342C247.893 33.5342 246.771 33.8745 245.893 34.555C245.047 35.2016 244.625 36.0352 244.625 37.056V44.406C244.625 45.3927 245.047 46.2265 245.893 46.907C246.771 47.5875 247.893 47.9278 249.258 47.9278Z" fill="#F6743C"/>
</g>
<defs>
<clipPath id="clip0_4_2">
<rect width="261.985" height="72.4786" fill="white" transform="translate(0.358704)"/>
</clipPath>
</defs>
</svg>
